<?xml version="1.0" standalone="no"?>
<!DOCTYPE svg PUBLIC "-//W3C//DTD SVG 20010904//EN"
 "http://www.w3.org/TR/2001/REC-SVG-20010904/DTD/svg10.dtd">
<svg version="1.0" xmlns="http://www.w3.org/2000/svg"
 width="1920.000000pt" height="1080.000000pt" viewBox="0 0 1920.000000 1080.000000"
 preserveAspectRatio="xMidYMid meet">

<g transform="translate(0.000000,1080.000000) scale(0.100000,-0.100000)"
fill="#000000" stroke="none">
<path d="M2640 3370 c0 -5 5 -10 11 -10 5 0 7 5 4 10 -3 6 -8 10 -11 10 -2 0
-4 -4 -4 -10z"/>
<path d="M2630 3285 c0 -10 29 -24 34 -17 3 6 -3 12 -14 15 -11 3 -20 4 -20 2z"/>
<path d="M2595 3213 c-12 -62 -15 -112 -5 -88 7 15 9 9 9 -25 1 -57 -5 -66
-51 -74 -23 -4 -38 -13 -38 -21 0 -8 5 -15 10 -15 6 0 10 5 10 12 0 19 17 -3
24 -32 7 -24 6 -24 -9 -6 -22 29 -34 9 -26 -45 4 -26 7 -53 6 -60 -1 -8 -6
-41 -10 -74 -4 -33 -11 -68 -17 -78 -6 -12 -6 -23 2 -32 17 -21 2 -74 -29
-104 l-26 -25 27 17 c31 19 48 22 48 6 0 -5 -4 -8 -9 -4 -5 3 -13 -4 -16 -16
-5 -13 -12 -18 -23 -14 -21 8 -32 -13 -22 -41 10 -24 3 -64 -11 -64 -5 0 -10
12 -11 28 -1 15 -3 43 -4 62 -4 50 6 121 16 115 10 -6 8 15 -4 33 -4 7 -6 25
-5 40 1 15 0 36 -4 47 -19 57 -24 151 -10 198 8 26 11 52 8 57 -3 5 -1 27 4
48 9 42 -1 78 -13 47 -3 -9 -6 -28 -6 -42 0 -15 -11 -36 -25 -49 -27 -25 -46
-14 -23 13 9 12 9 15 1 9 -9 -5 -13 -1 -13 12 0 11 -7 22 -15 26 -8 3 -15 12
-15 21 0 8 -4 15 -10 15 -13 0 -13 -6 5 -40 17 -33 17 -33 -1 -76 -14 -34 -10
-44 17 -44 9 0 20 -7 23 -16 4 -9 13 -14 21 -10 15 5 21 -5 9 -17 -8 -7 -46
11 -56 27 -5 8 -8 7 -8 -2 0 -7 -8 -12 -17 -10 -10 2 -17 -3 -15 -9 1 -7 -2
-13 -7 -13 -5 0 -16 -3 -25 -6 -11 -4 -16 -1 -16 10 0 9 -4 16 -10 16 -12 0
-13 -10 -1 -29 5 -8 16 -11 29 -7 13 4 22 1 26 -9 8 -22 26 -9 21 15 -6 33 9
23 26 -17 18 -41 8 -73 -21 -73 -13 0 -13 -2 -1 -9 19 -12 23 -42 8 -60 -9
-12 -9 -13 1 -7 7 4 12 1 12 -8 0 -9 5 -16 10 -16 9 0 14 15 11 33 -1 5 4 7
11 5 15 -5 29 -135 17 -158 -6 -11 -9 -8 -9 10 0 18 -3 21 -9 11 -6 -9 -1 -25
15 -48 23 -35 36 -97 29 -143 -2 -14 -4 -28 -4 -32 -2 -16 -31 -7 -31 10 0 14
-2 15 -10 2 -7 -11 -10 -7 -11 20 -2 51 -7 92 -13 97 -3 3 -1 16 4 29 6 15 6
24 0 24 -11 0 -10 66 1 97 5 13 4 25 -2 29 -6 3 -13 -3 -16 -15 -3 -12 -13
-21 -25 -21 -12 0 -16 -4 -12 -11 4 -7 1 -10 -7 -7 -8 3 -13 13 -13 22 1 9 -3
16 -10 16 -14 0 -9 -77 5 -86 5 -3 9 -12 9 -20 0 -8 -4 -12 -10 -9 -5 3 -10
-1 -10 -9 0 -9 5 -16 11 -16 6 0 18 -7 27 -16 15 -15 14 -18 -4 -31 -10 -7
-18 -17 -18 -21 1 -4 -3 -5 -10 -3 -43 17 -168 -1 -148 -21 8 -8 19 -8 39 0
51 20 96 26 88 12 -5 -8 -4 -11 2 -7 15 9 63 -31 63 -51 0 -10 -3 -13 -8 -7
-8 12 -72 16 -72 4 0 -4 18 -10 40 -14 22 -4 40 -12 41 -18 1 -7 2 -23 3 -37
0 -14 5 -31 10 -39 6 -10 3 -18 -9 -28 -11 -7 -14 -13 -8 -13 17 0 44 -88 30
-93 -8 -3 -4 -12 11 -26 12 -12 23 -29 24 -39 2 -27 4 -35 16 -65 17 -41 15
-48 -13 -35 -13 6 -23 14 -21 17 4 7 -19 31 -31 32 -23 4 -34 13 -28 27 4 12
3 13 -10 2 -22 -19 -65 3 -95 48 -32 47 -50 66 -56 59 -11 -10 45 -95 96 -144
13 -13 37 -27 53 -30 18 -4 41 -22 62 -50 34 -44 41 -74 48 -193 3 -59 25 -70
137 -69 58 1 77 4 60 9 -14 4 -38 8 -54 9 -54 2 -62 19 -59 128 3 144 11 193
39 243 58 108 84 175 88 228 0 12 4 22 8 22 12 0 58 42 58 53 0 5 -6 7 -13 4
-34 -13 6 95 43 118 7 4 1 12 -15 21 -27 14 -50 10 -40 -6 3 -5 1 -17 -4 -27
-18 -34 -41 -86 -41 -95 0 -16 -60 -103 -61 -88 0 8 -2 26 -3 40 -2 14 3 54
10 90 17 80 17 93 2 84 -8 -5 -9 -2 -5 10 4 10 7 22 7 27 0 5 15 18 33 29 30
18 30 20 8 20 -17 0 -22 4 -17 16 3 8 2 12 -4 9 -5 -3 -7 14 -3 42 3 26 12 52
19 56 8 4 14 23 14 40 0 18 5 38 11 44 14 14 4 47 -11 38 -5 -3 -10 1 -10 10
0 9 7 15 16 13 12 -2 17 6 20 30 3 24 0 32 -12 32 -14 0 -14 -3 -4 -15 10 -12
10 -15 -4 -15 -9 0 -16 7 -16 15 0 10 -6 12 -17 8 -17 -7 -17 -6 0 11 9 9 17
24 17 32 0 8 6 25 14 37 26 41 42 247 20 247 -7 0 -15 -17 -19 -37z m-191
-256 c-7 -19 -20 -22 -29 -7 -3 6 -15 10 -26 10 -10 0 -19 4 -19 10 0 10 27 3
48 -13 9 -7 12 -3 12 14 0 16 3 20 10 13 6 -6 8 -18 4 -27z m-4 -112 c0 -8 -4
-15 -10 -15 -5 0 -10 7 -10 15 0 8 5 15 10 15 6 0 10 -7 10 -15z m10 -116 c0
-6 -4 -7 -10 -4 -5 3 -10 11 -10 16 0 6 5 7 10 4 6 -3 10 -11 10 -16z m0 -59
c0 -5 -2 -10 -4 -10 -3 0 -8 5 -11 10 -3 6 -1 10 4 10 6 0 11 -4 11 -10z m94
-186 c-4 -14 -8 -44 -9 -67 -1 -23 -3 -44 -5 -47 -1 -3 -2 -8 -1 -12 0 -5 -4
-8 -10 -8 -16 0 -6 125 11 145 18 21 21 19 14 -11z m-199 -24 c3 -5 1 -10 -4
-10 -6 0 -11 5 -11 10 0 6 2 10 4 10 3 0 8 -4 11 -10z m147 -162 c-7 -15 -20
-8 -17 10 2 9 4 28 6 42 1 20 3 18 8 -10 4 -19 5 -38 3 -42z m3 -50 c9 -51 0
-103 -19 -106 -9 -2 -16 3 -16 11 0 9 -6 17 -12 20 -10 3 -10 9 1 30 7 14 14
37 14 51 0 38 25 32 32 -6z m98 7 c-8 -22 -22 -18 -16 5 3 11 9 17 14 15 4 -3
6 -12 2 -20z"/>
<path d="M2340 3185 c0 -9 -11 -20 -25 -25 -32 -12 -34 -35 -2 -26 12 3 25 6
28 6 10 0 17 60 7 60 -4 0 -8 -7 -8 -15z"/>
<path d="M2405 3191 c-3 -5 -1 -12 5 -16 5 -3 10 1 10 9 0 18 -6 21 -15 7z"/>
<path d="M18093 3143 c9 -2 23 -2 30 0 6 3 -1 5 -18 5 -16 0 -22 -2 -12 -5z"/>
<path d="M2340 3100 c6 -11 13 -20 15 -20 3 0 5 9 5 20 0 11 -7 20 -15 20 -13
0 -14 -4 -5 -20z"/>
<path d="M2871 3064 c0 -11 3 -14 6 -6 3 7 2 16 -1 19 -3 4 -6 -2 -5 -13z"/>
<path d="M2138 3043 c7 -3 16 -2 19 1 4 3 -2 6 -13 5 -11 0 -14 -3 -6 -6z"/>
<path d="M2185 3020 c-8 -12 20 -24 35 -15 6 3 8 11 5 16 -8 12 -32 12 -40 -1z"/>
<path d="M2244 2984 c3 -9 6 -19 6 -22 0 -9 20 21 20 31 0 4 -7 7 -16 7 -11 0
-14 -5 -10 -16z"/>
<path d="M1870 2950 c0 -5 4 -10 9 -10 6 0 13 5 16 10 3 6 -1 10 -9 10 -9 0
-16 -4 -16 -10z"/>
<path d="M2868 2943 c7 -3 16 -2 19 1 4 3 -2 6 -13 5 -11 0 -14 -3 -6 -6z"/>
<path d="M2169 2927 c6 -8 8 -17 4 -20 -3 -4 -1 -7 6 -7 7 0 9 -4 6 -10 -3 -5
1 -10 11 -10 13 0 14 3 5 14 -6 7 -9 21 -5 30 5 12 0 16 -16 16 -18 0 -20 -3
-11 -13z"/>
<path d="M1883 2923 c-18 -6 -16 -23 1 -23 17 0 30 16 19 23 -5 2 -14 2 -20 0z"/>
<path d="M2860 2910 c0 -5 5 -10 10 -10 6 0 10 5 10 10 0 6 -4 10 -10 10 -5 0
-10 -4 -10 -10z"/>
<path d="M2830 2894 c0 -8 5 -12 10 -9 6 3 10 10 10 16 0 5 -4 9 -10 9 -5 0
-10 -7 -10 -16z"/>
<path d="M1885 2880 c-3 -5 3 -10 15 -10 12 0 18 5 15 10 -3 6 -10 10 -15 10
-5 0 -12 -4 -15 -10z"/>
<path d="M1896 2821 c-4 -5 -2 -12 3 -15 5 -4 12 -2 15 3 4 5 2 12 -3 15 -5 4
-12 2 -15 -3z"/>
<path d="M2752 2814 c-10 -12 -10 -14 2 -14 17 0 30 16 19 23 -5 3 -14 -1 -21
-9z"/>
<path d="M2200 2811 c0 -10 30 -24 37 -17 3 2 -5 9 -16 16 -12 6 -21 7 -21 1z"/>
<path d="M2927 2813 c-12 -12 -7 -22 8 -17 8 4 15 10 15 15 0 11 -14 12 -23 2z"/>
<path d="M2852 2776 c-6 -14 -16 -26 -22 -26 -5 0 -10 -5 -10 -11 0 -5 4 -8 9
-4 5 3 12 1 16 -5 3 -5 -6 -15 -22 -21 -19 -7 -23 -13 -15 -18 7 -4 10 -15 7
-23 -5 -12 2 -17 27 -21 39 -6 45 -2 29 17 -8 9 -10 24 -5 38 4 13 7 26 6 30
-1 4 5 5 13 2 8 -4 15 -1 15 5 0 6 -7 11 -16 11 -8 0 -12 5 -9 10 4 6 15 8 26
5 11 -4 19 -2 19 4 0 6 -11 11 -24 11 -13 0 -26 5 -28 11 -2 6 -9 0 -16 -15z"/>
<path d="M1905 2780 c-3 -5 -1 -10 4 -10 6 0 11 5 11 10 0 6 -2 10 -4 10 -3 0
-8 -4 -11 -10z"/>
<path d="M1920 2765 c-9 -11 -10 -15 -1 -15 8 0 10 -8 6 -20 -4 -13 -1 -22 8
-26 9 -3 13 -13 10 -25 -3 -10 -10 -16 -17 -13 -6 3 -3 -1 6 -8 9 -8 20 -27
24 -44 4 -16 11 -35 17 -41 6 -9 6 -13 -2 -13 -6 0 -11 4 -11 10 0 14 -58 42
-65 31 -7 -12 12 -24 24 -17 5 3 15 -2 22 -11 12 -15 11 -16 -8 -11 -13 4 -23
2 -23 -3 0 -5 5 -9 10 -9 12 0 71 -40 82 -55 11 -14 10 -25 -2 -25 -12 0 -82
-61 -77 -67 2 -2 18 2 36 8 35 12 66 -3 57 -28 -5 -13 13 -41 46 -71 9 -9 14
-20 11 -26 -4 -7 -1 -6 6 0 10 9 10 17 2 33 -8 14 -8 21 -1 21 5 0 18 -16 27
-34 64 -126 97 -184 116 -203 36 -40 38 -25 3 27 -19 27 -40 63 -47 80 -8 16
-18 30 -24 30 -5 0 -3 5 5 10 10 6 11 10 3 10 -8 0 -13 13 -13 31 0 16 -4 28
-9 24 -5 -3 -12 -1 -16 5 -3 5 -2 10 3 10 15 0 2 43 -16 58 -9 6 -12 12 -8 12
9 0 -58 87 -82 107 -8 7 -12 21 -9 33 3 14 -2 29 -14 41 -20 20 -26 34 -10 25
11 -7 21 40 10 51 -4 4 -9 17 -11 28 -2 11 -9 20 -16 20 -6 0 -12 2 -11 5 0 3
-4 17 -10 32 -8 22 -7 27 7 31 13 4 12 5 -4 6 -12 0 -27 -6 -34 -14z m90 -325
c0 -5 -4 -10 -10 -10 -5 0 -10 5 -10 10 0 6 5 10 10 10 6 0 10 -4 10 -10z m55
-48 c-3 -3 -11 0 -18 7 -9 10 -8 11 6 5 10 -3 15 -9 12 -12z m15 -33 c0 -6 -4
-7 -10 -4 -5 3 -10 11 -10 16 0 6 5 7 10 4 6 -3 10 -11 10 -16z"/>
<path d="M2225 2770 c-3 -5 0 -10 7 -10 9 0 9 -3 -2 -10 -13 -9 -13 -12 3 -21
9 -5 17 -17 17 -24 0 -8 5 -15 10 -15 6 0 10 7 10 15 0 8 -4 15 -8 15 -5 0 -8
14 -7 30 2 29 -17 42 -30 20z"/>
<path d="M2695 2761 l-20 -8 20 -5 c16 -5 14 -6 -7 -7 -24 -1 -53 -21 -31 -21
5 0 9 -22 9 -50 l0 -49 -35 4 c-34 4 -35 3 -16 -11 11 -8 25 -12 33 -9 10 4
12 -1 7 -18 -11 -34 -11 -39 1 -44 7 -2 15 15 20 44 7 34 15 51 31 58 20 10
20 13 8 26 -12 12 -13 20 -3 47 7 18 16 32 21 32 4 0 5 5 2 10 -7 12 -12 12
-40 1z"/>
<path d="M2950 2750 c0 -5 5 -10 11 -10 5 0 7 5 4 10 -3 6 -8 10 -11 10 -2 0
-4 -4 -4 -10z"/>
<path d="M1785 2710 c4 -6 11 -8 16 -5 14 9 11 15 -7 15 -8 0 -12 -5 -9 -10z"/>
<path d="M2046 2678 c-56 -12 -55 -16 3 -15 28 1 51 5 51 9 0 13 -15 15 -54 6z"/>
<path d="M2188 2668 c5 -5 16 -8 23 -6 8 3 3 7 -10 11 -17 4 -21 3 -13 -5z"/>
<path d="M1804 2646 c-3 -9 -13 -16 -22 -16 -12 0 -11 -4 6 -16 25 -17 34 -14
39 16 3 24 -15 37 -23 16z"/>
<path d="M2635 2650 c3 -5 8 -10 11 -10 2 0 4 5 4 10 0 6 -5 10 -11 10 -5 0
-7 -4 -4 -10z"/>
<path d="M2116 2631 c-4 -5 -2 -12 3 -15 5 -4 12 -2 15 3 4 5 2 12 -3 15 -5 4
-12 2 -15 -3z"/>
<path d="M2160 2630 c0 -5 5 -10 11 -10 5 0 7 5 4 10 -3 6 -8 10 -11 10 -2 0
-4 -4 -4 -10z"/>
<path d="M2786 2628 c5 -8 2 -9 -9 -5 -10 3 -17 2 -17 -2 0 -5 -3 -17 -7 -27
-5 -14 -2 -13 16 5 12 12 26 19 31 16 6 -4 10 1 10 9 0 9 -7 16 -16 16 -9 0
-12 -5 -8 -12z"/>
<path d="M1834 2595 c-10 -24 21 -46 48 -36 13 6 20 11 16 12 -39 9 -58 21
-52 30 3 5 3 9 -1 9 -3 0 -8 -7 -11 -15z"/>
<path d="M2110 2590 c-12 -8 -12 -10 3 -16 21 -8 35 2 21 16 -5 5 -15 6 -24 0z"/>
<path d="M2710 2582 c-13 -14 -12 -15 4 -9 13 5 17 3 13 -7 -4 -10 -1 -13 9
-9 12 4 12 8 2 22 -7 9 -12 17 -13 17 0 1 -7 -5 -15 -14z"/>
<path d="M2790 2593 c-27 -11 -40 -43 -17 -43 6 0 17 11 24 25 6 14 10 25 10
24 -1 0 -9 -3 -17 -6z"/>
<path d="M2610 2580 c-8 -5 -10 -10 -5 -10 6 0 17 5 25 10 8 5 11 10 5 10 -5
0 -17 -5 -25 -10z"/>
<path d="M3025 2550 c-3 -5 -1 -10 4 -10 6 0 11 5 11 10 0 6 -2 10 -4 10 -3 0
-8 -4 -11 -10z"/>
<path d="M1872 2539 c2 -7 10 -15 17 -17 8 -3 12 1 9 9 -2 7 -10 15 -17 17 -8
3 -12 -1 -9 -9z"/>
<path d="M2704 2528 c-3 -4 2 -8 10 -8 23 0 19 -35 -6 -64 -45 -48 -58 -66
-49 -66 20 0 41 13 41 25 0 8 14 29 30 47 17 18 30 36 30 40 0 5 7 8 16 8 14
0 14 3 4 15 -13 15 -67 17 -76 3z"/>
<path d="M2250 2500 c0 -5 7 -10 16 -10 8 0 12 5 9 10 -3 6 -10 10 -16 10 -5
0 -9 -4 -9 -10z"/>
<path d="M2809 2496 c6 -8 22 -16 34 -19 22 -6 22 -6 -2 14 -27 22 -49 26 -32
5z"/>
<path d="M2883 2457 c2 -7 12 -14 21 -15 11 -3 17 1 14 9 -2 7 -12 13 -22 15
-9 1 -15 -3 -13 -9z"/>
<path d="M2784 2451 c3 -5 15 -7 26 -4 28 7 25 13 -6 13 -14 0 -23 -4 -20 -9z"/>
<path d="M2820 2431 c-24 -7 -24 -8 7 -12 37 -6 64 5 38 15 -9 3 -17 6 -18 5
-1 -1 -13 -4 -27 -8z"/>
<path d="M2930 2404 c0 -8 5 -12 10 -9 6 3 10 10 10 16 0 5 -4 9 -10 9 -5 0
-10 -7 -10 -16z"/>
<path d="M1903 2383 c9 -2 17 -9 17 -14 0 -6 -4 -8 -8 -5 -4 2 -14 1 -22 -4
-10 -6 1 -8 32 -7 26 2 51 6 54 10 7 7 -9 11 -33 8 -6 -1 -14 3 -18 9 -3 5
-14 9 -23 9 -15 -1 -15 -2 1 -6z"/>
<path d="M1978 2383 c7 -3 16 -2 19 1 4 3 -2 6 -13 5 -11 0 -14 -3 -6 -6z"/>
<path d="M2158 2383 c7 -3 16 -2 19 1 4 3 -2 6 -13 5 -11 0 -14 -3 -6 -6z"/>
<path d="M2080 2255 c0 -8 -5 -15 -11 -15 -6 0 -3 -7 5 -15 9 -9 20 -24 25
-33 17 -30 22 -6 9 37 -13 41 -28 55 -28 26z"/>
<path d="M2187 2264 c-12 -12 3 -22 24 -17 16 4 17 8 7 14 -16 10 -23 11 -31
3z"/>
<path d="M1796 2221 c-4 -5 -2 -12 3 -15 5 -4 12 -2 15 3 4 5 2 12 -3 15 -5 4
-12 2 -15 -3z"/>
<path d="M4968 1923 c6 -2 18 -2 25 0 6 3 1 5 -13 5 -14 0 -19 -2 -12 -5z"/>
<path d="M4703 1893 c9 -2 23 -2 30 0 6 3 -1 5 -18 5 -16 0 -22 -2 -12 -5z"/>
<path d="M4350 1850 c-17 -11 -9 -13 35 -10 17 1 34 6 40 11 12 12 -56 12 -75
-1z"/>
<path d="M4247 1843 c-9 -2 -15 -9 -12 -14 10 -15 32 -10 32 6 0 8 -1 14 -1
14 -1 -1 -9 -3 -19 -6z"/>
<path d="M3966 1831 c-5 -8 -61 -19 -183 -37 -22 -3 -33 -11 -33 -21 0 -13 7
-14 38 -8 20 5 69 9 108 10 39 1 78 6 85 11 8 5 59 14 114 19 57 6 99 14 98
20 -4 13 -39 14 -122 5 -36 -4 -70 -3 -75 1 -13 11 -23 11 -30 0z"/>
<path d="M3443 1768 c-13 -6 -23 -14 -23 -17 0 -11 212 -3 240 8 24 9 23 10
-11 10 -20 1 -69 3 -110 6 -46 3 -82 1 -96 -7z"/>
<path d="M3270 1750 c-25 -4 -63 -6 -85 -4 -22 2 -87 -4 -145 -15 l-105 -19
165 4 c284 6 305 7 305 24 0 18 -64 22 -135 10z"/>
<path d="M2815 1705 l-70 -12 100 0 c55 0 90 2 77 4 -12 2 -20 9 -17 14 7 11
1 10 -90 -6z"/>
<path d="M3255 1700 c17 -4 41 -8 55 -9 20 0 22 1 10 9 -8 5 -33 9 -55 9 -39
-1 -39 -2 -10 -9z"/>
<path d="M2968 1693 c7 -3 16 -2 19 1 4 3 -2 6 -13 5 -11 0 -14 -3 -6 -6z"/>
<path d="M3058 1693 c6 -2 18 -2 25 0 6 3 1 5 -13 5 -14 0 -19 -2 -12 -5z"/>
<path d="M3368 1693 c7 -3 16 -2 19 1 4 3 -2 6 -13 5 -11 0 -14 -3 -6 -6z"/>
</g>
</svg>
